<?xml version="1.0" encoding="UTF-8"?>
<svg class='take-logo' xmlns="http://www.w3.org/2000/svg" width="80" height="60" viewBox="0 0 80 60" preserveAspectRatio="xMidYMid meet" version="1.0">
 <g class="layer" fill="rgb(0%,70.196078%,100%)">
  <title>Layer 1</title>
  <g id="svg_32">
   <path d="m38.5,25.53c-0.94,0.42 -1.19,1.5 -0.5,2.21c1.08,1.12 2.83,-0.12 2.17,-1.52c-0.27,-0.58 -1.14,-0.93 -1.68,-0.69z" id="svg_3" stroke-width="39"/>
   <path d="m35.73,56.73c-0.78,0.83 -0.21,2.26 0.92,2.28c0.38,0 0.53,-0.07 4.87,-2.59c4.29,-2.49 4.48,-2.61 4.66,-2.94c0.23,-0.41 0.21,-0.91 -0.05,-1.37c-0.26,-0.45 -0.94,-0.7 -1.48,-0.56c-0.46,0.12 -8.62,4.86 -8.93,5.18z" id="svg_7" stroke-width="39"/>
   <path d="m54.62,23.49c-0.19,0.09 -0.45,0.3 -0.56,0.46c-0.21,0.28 -0.21,0.41 -0.24,5.99c-0.02,3.89 0,5.83 0.08,6.08c0.07,0.23 0.24,0.49 0.48,0.66l0.37,0.28l8.64,0c8.32,0 8.65,-0.01 8.93,-0.19c0.65,-0.44 0.63,-0.23 0.63,-6.61c0,-5.64 -0.01,-5.8 -0.2,-6.14c-0.44,-0.75 0.07,-0.71 -9.34,-0.71c-7.82,0 -8.45,0.01 -8.77,0.18zm10.59,3.79l-1.84,1.22l-1.56,-1.04c-0.86,-0.57 -1.68,-1.13 -1.81,-1.23c-0.23,-0.18 -0.14,-0.18 3.4,-0.18l3.65,0l-1.84,1.23zm-5.41,2.13c1.78,1.19 3.16,2.03 3.35,2.07c0.19,0.03 0.48,0.02 0.63,-0.04c0.15,-0.06 1.61,-1 3.25,-2.09c1.64,-1.09 3.03,-1.98 3.1,-1.98c0.08,0 0.11,0.9 0.09,3.42l-0.02,3.43l-6.82,0.03l-6.83,0.02l0,-3.51c0,-2.77 0.03,-3.49 0.13,-3.43c0.06,0.04 1.47,0.99 3.13,2.08z" id="svg_5" stroke-width="39"/>
   <path d="m25.56,55.28c-0.24,0.24 -0.4,0.63 -0.39,0.97c0.03,0.48 0.41,1.07 0.79,1.22c0.71,0.28 0.04,0.63 11.32,-5.91c10.11,-5.86 10.35,-6.02 10.53,-6.34c0.53,-0.97 -0.28,-2.09 -1.41,-1.95c-0.3,0.03 -2.09,1.05 -10.52,5.95c-5.59,3.25 -10.23,5.98 -10.32,6.06z" id="svg_6" stroke-width="39"/>
   <path d="m10.52,8.41c-0.31,0.44 -0.33,0.95 -0.05,1.44c0.17,0.3 0.61,0.59 2.65,1.8c1.34,0.79 3.17,1.87 4.09,2.41c0.91,0.54 2.74,1.62 4.06,2.4l2.41,1.42l-4.11,2.42l-4.13,2.42l-3.26,-0.84c-3.23,-0.84 -4,-0.96 -5.36,-0.87c-1.69,0.11 -2.87,0.51 -4.82,1.65c-1.54,0.89 -1.75,1.11 -1.8,1.78c-0.04,0.79 -0.11,0.72 5,4.09c2.62,1.72 4.78,3.17 4.8,3.2c0.02,0.04 -0.1,0.35 -0.26,0.7c-0.16,0.35 -0.35,0.87 -0.43,1.16c-0.16,0.56 -0.04,1.53 0.23,1.99c0.47,0.82 1.5,1.37 2.54,1.39l0.55,0l8.43,-4.86c4.63,-2.67 8.43,-4.84 8.44,-4.82c0.01,0.02 0.04,1.42 0.07,3.11c0.01,1.68 0.04,3.96 0.06,5.05c0.02,1.08 0.06,4.47 0.09,7.52c0.07,5.48 0.07,5.55 0.35,6.05c0.28,0.48 0.33,0.53 0.8,0.63c0.49,0.1 0.52,0.09 1.24,-0.32c1.32,-0.76 2.55,-2.17 3.16,-3.63c0.15,-0.35 0.43,-1.21 0.65,-1.9c0.21,-0.69 0.93,-3.09 1.6,-5.33c0.8,-2.66 1.22,-4.23 1.2,-4.5c-0.05,-0.59 -0.4,-0.99 -0.99,-1.13c-0.55,-0.12 -0.88,-0.05 -1.27,0.29c-0.24,0.2 -0.56,1.16 -1.9,5.6c-1.51,5.05 -1.9,6.27 -2.02,6.23c-0.03,-0.01 -0.06,-1.41 -0.09,-3.11c-0.02,-1.7 -0.05,-4.01 -0.06,-5.13c-0.01,-1.12 -0.07,-4.65 -0.11,-7.84c-0.04,-3.19 -0.11,-5.92 -0.16,-6.08c-0.13,-0.38 -0.72,-0.82 -1.16,-0.87c-0.46,-0.04 -1.08,0.31 -1.31,0.72c-0.09,0.16 -0.17,0.56 -0.18,0.87l0,0.57l-8.72,5.06c-4.8,2.78 -8.73,5.04 -8.74,5.02c-0.01,-0.02 0.24,-0.63 0.55,-1.38c0.58,-1.37 0.65,-1.81 0.38,-2.28c-0.1,-0.17 -1.65,-1.25 -4.42,-3.07c-2.35,-1.54 -4.28,-2.83 -4.3,-2.86c-0.05,-0.09 0.96,-0.51 1.61,-0.66c1.5,-0.37 2.23,-0.29 6.06,0.73c1.8,0.48 3.41,0.9 3.58,0.93c0.3,0.06 0.46,-0.03 18.84,-10.63c17.09,-9.85 18.57,-10.69 19.1,-10.82c1.92,-0.44 3.84,-0.41 6.11,0.12c1.11,0.25 1.11,0.25 0.38,1.29c-1,1.43 -0.81,1.29 -8.84,6l-7.19,4.22l-0.22,-0.24c-0.12,-0.14 -0.42,-0.31 -0.69,-0.38c-0.42,-0.11 -0.52,-0.09 -0.89,0.13c-0.24,0.14 -0.48,0.31 -0.54,0.4c-0.06,0.08 -0.63,1.87 -1.26,3.98c-1.09,3.65 -1.22,4.25 -0.96,4.69c0.16,0.28 0.85,0.66 1.2,0.67c0.4,0 0.92,-0.28 1.11,-0.59c0.07,-0.11 0.47,-1.3 0.87,-2.64l0.75,-2.44l8.28,-4.86c8.68,-5.1 8.57,-5.03 9.72,-6.25c1.65,-1.72 2.57,-4.19 1.98,-5.28c-0.29,-0.51 -0.78,-0.74 -2.78,-1.27c-2.97,-0.79 -5.51,-0.8 -8.02,-0.08c-0.84,0.25 -1.08,0.38 -9.1,5l-8.25,4.74l-8.94,-2.09c-4.93,-1.15 -9.32,-2.17 -9.76,-2.24c-1.55,-0.27 -3.36,0 -4.9,0.73c-0.57,0.27 -0.74,0.39 -0.94,0.7zm6.56,1.51c0.49,0.12 2.43,0.57 4.29,1.01c1.87,0.43 3.46,0.8 3.54,0.82c1.87,0.43 4.72,1.11 5.56,1.32l1.1,0.28l-2.57,1.49l-2.57,1.49l-0.43,-0.26c-0.24,-0.13 -1.58,-0.93 -2.98,-1.76c-1.41,-0.83 -3.23,-1.91 -4.05,-2.39c-2.41,-1.4 -3.79,-2.23 -3.82,-2.28c-0.05,-0.09 1.03,0.08 1.92,0.29z" id="svg_2" stroke-width="39"/>
   <path d="m61.72,13.82c-4.89,0.62 -8.94,3 -11.7,6.87c-1.41,1.96 -2.26,3.99 -2.78,6.63c-0.26,1.31 -0.26,4.3 0,5.69c1.84,9.85 11.85,15.81 21.28,12.68c1.97,-0.65 3.66,-1.58 5.24,-2.89c5.34,-4.4 7.35,-11.55 5.08,-18.06c-1.92,-5.47 -6.57,-9.52 -12.32,-10.68c-0.96,-0.19 -3.94,-0.34 -4.79,-0.23zm4.68,3.03c3.46,0.8 6.43,2.86 8.39,5.84c2.49,3.76 2.91,8.62 1.14,12.79c-2.52,5.89 -8.78,9.25 -15.06,8.07c-3.47,-0.65 -6.52,-2.61 -8.64,-5.57c-2.44,-3.4 -3.14,-8 -1.83,-11.99c0.43,-1.3 1.29,-3.01 2,-3.95c0.7,-0.92 1.98,-2.2 2.87,-2.87c1.5,-1.13 3.8,-2.1 5.79,-2.47c1.44,-0.27 3.83,-0.2 5.34,0.15z" id="svg_4" stroke-width="39"/>
  </g>
 </g>
</svg>